<mxfile host="app.diagrams.net" agent="Mozilla/5.0 (Macintosh; Intel Mac OS X 10_15_7) AppleWebKit/537.36 (KHTML, like Gecko) Chrome/131.0.0.0 Safari/537.36" version="25.0.3">
  <diagram name="Page-1" id="w_UZ2k6EMjroT5BBrABI">
    <mxGraphModel dx="1266" dy="640" grid="1" gridSize="10" guides="1" tooltips="1" connect="1" arrows="1" fold="1" page="1" pageScale="1" pageWidth="1100" pageHeight="850" math="0" shadow="0">
      <root>
        <mxCell id="0" />
        <mxCell id="1" parent="0" />
        <mxCell id="8JDi8ywZV_aK6q6rxBD8-1" value="AWS Account" style="points=[[0,0],[0.25,0],[0.5,0],[0.75,0],[1,0],[1,0.25],[1,0.5],[1,0.75],[1,1],[0.75,1],[0.5,1],[0.25,1],[0,1],[0,0.75],[0,0.5],[0,0.25]];outlineConnect=0;gradientColor=none;html=1;whiteSpace=wrap;fontSize=12;fontStyle=0;container=1;pointerEvents=0;collapsible=0;recursiveResize=0;shape=mxgraph.aws4.group;grIcon=mxgraph.aws4.group_account;strokeColor=#CD2264;fillColor=none;verticalAlign=top;align=left;spacingLeft=30;fontColor=#CD2264;dashed=0;" vertex="1" parent="1">
          <mxGeometry x="40" y="70" width="910" height="560" as="geometry" />
        </mxCell>
        <mxCell id="8JDi8ywZV_aK6q6rxBD8-2" value="" style="sketch=0;points=[[0,0,0],[0.25,0,0],[0.5,0,0],[0.75,0,0],[1,0,0],[0,1,0],[0.25,1,0],[0.5,1,0],[0.75,1,0],[1,1,0],[0,0.25,0],[0,0.5,0],[0,0.75,0],[1,0.25,0],[1,0.5,0],[1,0.75,0]];outlineConnect=0;fontColor=#232F3E;fillColor=#7AA116;strokeColor=#ffffff;dashed=0;verticalLabelPosition=bottom;verticalAlign=top;align=center;html=1;fontSize=12;fontStyle=0;aspect=fixed;shape=mxgraph.aws4.resourceIcon;resIcon=mxgraph.aws4.s3;" vertex="1" parent="8JDi8ywZV_aK6q6rxBD8-1">
          <mxGeometry x="740" y="20" width="78" height="78" as="geometry" />
        </mxCell>
        <mxCell id="8JDi8ywZV_aK6q6rxBD8-3" value="Userdata-dev" style="text;strokeColor=none;align=center;fillColor=none;html=1;verticalAlign=middle;whiteSpace=wrap;rounded=0;" vertex="1" parent="8JDi8ywZV_aK6q6rxBD8-1">
          <mxGeometry x="730" y="100" width="110" height="30" as="geometry" />
        </mxCell>
        <mxCell id="8JDi8ywZV_aK6q6rxBD8-4" value="" style="sketch=0;points=[[0,0,0],[0.25,0,0],[0.5,0,0],[0.75,0,0],[1,0,0],[0,1,0],[0.25,1,0],[0.5,1,0],[0.75,1,0],[1,1,0],[0,0.25,0],[0,0.5,0],[0,0.75,0],[1,0.25,0],[1,0.5,0],[1,0.75,0]];outlineConnect=0;fontColor=#232F3E;fillColor=#7AA116;strokeColor=#ffffff;dashed=0;verticalLabelPosition=bottom;verticalAlign=top;align=center;html=1;fontSize=12;fontStyle=0;aspect=fixed;shape=mxgraph.aws4.resourceIcon;resIcon=mxgraph.aws4.s3;" vertex="1" parent="8JDi8ywZV_aK6q6rxBD8-1">
          <mxGeometry x="740" y="150" width="78" height="78" as="geometry" />
        </mxCell>
        <mxCell id="8JDi8ywZV_aK6q6rxBD8-5" value="Userdata-test" style="text;strokeColor=none;align=center;fillColor=none;html=1;verticalAlign=middle;whiteSpace=wrap;rounded=0;" vertex="1" parent="8JDi8ywZV_aK6q6rxBD8-1">
          <mxGeometry x="730" y="230" width="110" height="30" as="geometry" />
        </mxCell>
        <mxCell id="8JDi8ywZV_aK6q6rxBD8-6" value="" style="sketch=0;points=[[0,0,0],[0.25,0,0],[0.5,0,0],[0.75,0,0],[1,0,0],[0,1,0],[0.25,1,0],[0.5,1,0],[0.75,1,0],[1,1,0],[0,0.25,0],[0,0.5,0],[0,0.75,0],[1,0.25,0],[1,0.5,0],[1,0.75,0]];outlineConnect=0;fontColor=#232F3E;fillColor=#7AA116;strokeColor=#ffffff;dashed=0;verticalLabelPosition=bottom;verticalAlign=top;align=center;html=1;fontSize=12;fontStyle=0;aspect=fixed;shape=mxgraph.aws4.resourceIcon;resIcon=mxgraph.aws4.s3;" vertex="1" parent="8JDi8ywZV_aK6q6rxBD8-1">
          <mxGeometry x="740" y="270" width="78" height="78" as="geometry" />
        </mxCell>
        <mxCell id="8JDi8ywZV_aK6q6rxBD8-7" value="Userdata-uat" style="text;strokeColor=none;align=center;fillColor=none;html=1;verticalAlign=middle;whiteSpace=wrap;rounded=0;" vertex="1" parent="8JDi8ywZV_aK6q6rxBD8-1">
          <mxGeometry x="730" y="348" width="110" height="30" as="geometry" />
        </mxCell>
        <mxCell id="8JDi8ywZV_aK6q6rxBD8-8" value="" style="sketch=0;points=[[0,0,0],[0.25,0,0],[0.5,0,0],[0.75,0,0],[1,0,0],[0,1,0],[0.25,1,0],[0.5,1,0],[0.75,1,0],[1,1,0],[0,0.25,0],[0,0.5,0],[0,0.75,0],[1,0.25,0],[1,0.5,0],[1,0.75,0]];outlineConnect=0;fontColor=#232F3E;fillColor=#7AA116;strokeColor=#ffffff;dashed=0;verticalLabelPosition=bottom;verticalAlign=top;align=center;html=1;fontSize=12;fontStyle=0;aspect=fixed;shape=mxgraph.aws4.resourceIcon;resIcon=mxgraph.aws4.s3;" vertex="1" parent="8JDi8ywZV_aK6q6rxBD8-1">
          <mxGeometry x="740" y="390" width="78" height="78" as="geometry" />
        </mxCell>
        <mxCell id="8JDi8ywZV_aK6q6rxBD8-9" value="Userdata-prod" style="text;strokeColor=none;align=center;fillColor=none;html=1;verticalAlign=middle;whiteSpace=wrap;rounded=0;" vertex="1" parent="8JDi8ywZV_aK6q6rxBD8-1">
          <mxGeometry x="730" y="500" width="110" height="30" as="geometry" />
        </mxCell>
        <mxCell id="8JDi8ywZV_aK6q6rxBD8-14" value="&lt;div&gt;&lt;b&gt;{&lt;/b&gt;&lt;/div&gt;&lt;div&gt;&lt;b&gt;&amp;nbsp; &amp;nbsp; &quot;Effect&quot;: &quot;Allow&quot;,&lt;/b&gt;&lt;/div&gt;&lt;div&gt;&lt;b&gt;&amp;nbsp; &amp;nbsp; &quot;Action&quot;: [&lt;span style=&quot;background-color: initial;&quot;&gt;&quot;s3:*&lt;/span&gt;&lt;span style=&quot;background-color: initial;&quot;&gt;&amp;nbsp;],&lt;/span&gt;&lt;/b&gt;&lt;/div&gt;&lt;div&gt;&lt;b&gt;&amp;nbsp; &amp;nbsp; &quot;Resource&quot;: [&lt;span style=&quot;background-color: initial;&quot;&gt;&quot;arn:aws:s3:::Userdata-dev/&quot;,&amp;nbsp;&lt;/span&gt;&lt;span style=&quot;background-color: initial;&quot;&gt;&quot;arn:aws:s3:::Userdata-dev/*&quot;&lt;/span&gt;&lt;span style=&quot;background-color: initial;&quot;&gt;]&lt;/span&gt;&lt;/b&gt;&lt;/div&gt;&lt;div&gt;&lt;b&gt;}&lt;/b&gt;&lt;/div&gt;" style="text;strokeColor=default;align=left;fillColor=none;html=1;verticalAlign=middle;whiteSpace=wrap;rounded=0;" vertex="1" parent="8JDi8ywZV_aK6q6rxBD8-1">
          <mxGeometry x="80" y="50" width="480" height="75" as="geometry" />
        </mxCell>
        <mxCell id="8JDi8ywZV_aK6q6rxBD8-19" style="edgeStyle=orthogonalEdgeStyle;rounded=0;orthogonalLoop=1;jettySize=auto;html=1;exitX=1;exitY=0.5;exitDx=0;exitDy=0;" edge="1" parent="8JDi8ywZV_aK6q6rxBD8-1" source="8JDi8ywZV_aK6q6rxBD8-15" target="8JDi8ywZV_aK6q6rxBD8-4">
          <mxGeometry relative="1" as="geometry" />
        </mxCell>
        <mxCell id="8JDi8ywZV_aK6q6rxBD8-15" value="&lt;div&gt;&lt;b&gt;{&lt;/b&gt;&lt;/div&gt;&lt;div&gt;&lt;b&gt;&amp;nbsp; &amp;nbsp; &quot;Effect&quot;: &quot;Allow&quot;,&lt;/b&gt;&lt;/div&gt;&lt;div&gt;&lt;b&gt;&amp;nbsp; &amp;nbsp; &quot;Action&quot;: [&lt;span style=&quot;background-color: initial;&quot;&gt;&quot;s3:*&lt;/span&gt;&lt;span style=&quot;background-color: initial;&quot;&gt;&amp;nbsp;],&lt;/span&gt;&lt;/b&gt;&lt;/div&gt;&lt;div&gt;&lt;b&gt;&amp;nbsp; &amp;nbsp; &quot;Resource&quot;: [&lt;span style=&quot;background-color: initial;&quot;&gt;&quot;arn:aws:s3:::Userdata-test/&quot;,&amp;nbsp;&lt;/span&gt;&lt;span style=&quot;background-color: initial;&quot;&gt;&quot;arn:aws:s3:::Userdata-test/*&quot;&lt;/span&gt;&lt;span style=&quot;background-color: initial;&quot;&gt;]&lt;/span&gt;&lt;/b&gt;&lt;/div&gt;&lt;div&gt;&lt;b&gt;}&lt;/b&gt;&lt;/div&gt;" style="text;strokeColor=default;align=left;fillColor=none;html=1;verticalAlign=middle;whiteSpace=wrap;rounded=0;" vertex="1" parent="8JDi8ywZV_aK6q6rxBD8-1">
          <mxGeometry x="80" y="170" width="480" height="75" as="geometry" />
        </mxCell>
        <mxCell id="8JDi8ywZV_aK6q6rxBD8-20" style="edgeStyle=orthogonalEdgeStyle;rounded=0;orthogonalLoop=1;jettySize=auto;html=1;exitX=1;exitY=0.5;exitDx=0;exitDy=0;" edge="1" parent="8JDi8ywZV_aK6q6rxBD8-1" source="8JDi8ywZV_aK6q6rxBD8-16" target="8JDi8ywZV_aK6q6rxBD8-6">
          <mxGeometry relative="1" as="geometry" />
        </mxCell>
        <mxCell id="8JDi8ywZV_aK6q6rxBD8-16" value="&lt;div&gt;&lt;b&gt;{&lt;/b&gt;&lt;/div&gt;&lt;div&gt;&lt;b&gt;&amp;nbsp; &amp;nbsp; &quot;Effect&quot;: &quot;Allow&quot;,&lt;/b&gt;&lt;/div&gt;&lt;div&gt;&lt;b&gt;&amp;nbsp; &amp;nbsp; &quot;Action&quot;: [&lt;span style=&quot;background-color: initial;&quot;&gt;&quot;s3:GetObjects&quot;, &quot;s3:ListObjects&quot;&lt;/span&gt;&lt;span style=&quot;background-color: initial;&quot;&gt;&amp;nbsp;],&lt;/span&gt;&lt;/b&gt;&lt;/div&gt;&lt;div&gt;&lt;b&gt;&amp;nbsp; &amp;nbsp; &quot;Resource&quot;: [&lt;span style=&quot;background-color: initial;&quot;&gt;&quot;arn:aws:s3:::Userdata-uat/&quot;,&amp;nbsp;&lt;/span&gt;&lt;span style=&quot;background-color: initial;&quot;&gt;&quot;arn:aws:s3:::Userdata-uat/*&quot;&lt;/span&gt;&lt;span style=&quot;background-color: initial;&quot;&gt;]&lt;/span&gt;&lt;/b&gt;&lt;/div&gt;&lt;div&gt;&lt;b&gt;}&lt;/b&gt;&lt;/div&gt;" style="text;strokeColor=default;align=left;fillColor=none;html=1;verticalAlign=middle;whiteSpace=wrap;rounded=0;" vertex="1" parent="8JDi8ywZV_aK6q6rxBD8-1">
          <mxGeometry x="80" y="290" width="480" height="75" as="geometry" />
        </mxCell>
        <mxCell id="8JDi8ywZV_aK6q6rxBD8-21" style="edgeStyle=orthogonalEdgeStyle;rounded=0;orthogonalLoop=1;jettySize=auto;html=1;exitX=1;exitY=0.5;exitDx=0;exitDy=0;" edge="1" parent="8JDi8ywZV_aK6q6rxBD8-1" source="8JDi8ywZV_aK6q6rxBD8-17" target="8JDi8ywZV_aK6q6rxBD8-8">
          <mxGeometry relative="1" as="geometry" />
        </mxCell>
        <mxCell id="8JDi8ywZV_aK6q6rxBD8-17" value="&lt;div&gt;&lt;b&gt;{&lt;/b&gt;&lt;/div&gt;&lt;div&gt;&lt;b&gt;&amp;nbsp; &amp;nbsp; &quot;Effect&quot;: &quot;Deny&quot;,&lt;/b&gt;&lt;/div&gt;&lt;div&gt;&lt;b&gt;&amp;nbsp; &amp;nbsp; &quot;Action&quot;: [&lt;span style=&quot;background-color: initial;&quot;&gt;&quot;s3:*&quot;&lt;/span&gt;&lt;span style=&quot;background-color: initial;&quot;&gt;&amp;nbsp;],&lt;/span&gt;&lt;/b&gt;&lt;/div&gt;&lt;div&gt;&lt;b&gt;&amp;nbsp; &amp;nbsp; &quot;Resource&quot;: [&lt;span style=&quot;background-color: initial;&quot;&gt;&quot;arn:aws:s3:::Userdata-prod/&quot;,&amp;nbsp;&lt;/span&gt;&lt;span style=&quot;background-color: initial;&quot;&gt;&quot;arn:aws:s3:::Userdata-prod/*&quot;&lt;/span&gt;&lt;span style=&quot;background-color: initial;&quot;&gt;]&lt;/span&gt;&lt;/b&gt;&lt;/div&gt;&lt;div&gt;&lt;b&gt;}&lt;/b&gt;&lt;/div&gt;" style="text;strokeColor=default;align=left;fillColor=none;html=1;verticalAlign=middle;whiteSpace=wrap;rounded=0;" vertex="1" parent="8JDi8ywZV_aK6q6rxBD8-1">
          <mxGeometry x="80" y="410" width="480" height="75" as="geometry" />
        </mxCell>
        <mxCell id="8JDi8ywZV_aK6q6rxBD8-18" style="edgeStyle=orthogonalEdgeStyle;rounded=0;orthogonalLoop=1;jettySize=auto;html=1;exitX=1;exitY=0.5;exitDx=0;exitDy=0;entryX=0;entryY=0.5;entryDx=0;entryDy=0;entryPerimeter=0;" edge="1" parent="8JDi8ywZV_aK6q6rxBD8-1" source="8JDi8ywZV_aK6q6rxBD8-14" target="8JDi8ywZV_aK6q6rxBD8-2">
          <mxGeometry relative="1" as="geometry" />
        </mxCell>
        <mxCell id="8JDi8ywZV_aK6q6rxBD8-12" value="Environment Security" style="text;strokeColor=none;align=center;fillColor=none;html=1;verticalAlign=middle;whiteSpace=wrap;rounded=0;" vertex="1" parent="1">
          <mxGeometry x="90" y="30" width="230" height="30" as="geometry" />
        </mxCell>
        <mxCell id="8JDi8ywZV_aK6q6rxBD8-22" value="AWS Account Dev" style="points=[[0,0],[0.25,0],[0.5,0],[0.75,0],[1,0],[1,0.25],[1,0.5],[1,0.75],[1,1],[0.75,1],[0.5,1],[0.25,1],[0,1],[0,0.75],[0,0.5],[0,0.25]];outlineConnect=0;gradientColor=none;html=1;whiteSpace=wrap;fontSize=12;fontStyle=0;container=1;pointerEvents=0;collapsible=0;recursiveResize=0;shape=mxgraph.aws4.group;grIcon=mxgraph.aws4.group_account;strokeColor=#CD2264;fillColor=none;verticalAlign=top;align=left;spacingLeft=30;fontColor=#CD2264;dashed=0;" vertex="1" parent="1">
          <mxGeometry x="40" y="880" width="440" height="240" as="geometry" />
        </mxCell>
        <mxCell id="8JDi8ywZV_aK6q6rxBD8-45" value="&lt;div&gt;&lt;b&gt;{&lt;/b&gt;&lt;/div&gt;&lt;div&gt;&lt;b&gt;&amp;nbsp; &amp;nbsp; &quot;Effect&quot;: &quot;Allow&quot;,&lt;/b&gt;&lt;/div&gt;&lt;div&gt;&lt;b&gt;&amp;nbsp; &amp;nbsp; &quot;Action&quot;: [&lt;/b&gt;&lt;/div&gt;&lt;div&gt;&lt;b&gt;&amp;nbsp; &amp;nbsp; &amp;nbsp; &amp;nbsp; &quot;s3:*&quot;&lt;/b&gt;&lt;/div&gt;&lt;div&gt;&lt;b&gt;&amp;nbsp; &amp;nbsp; ],&lt;/b&gt;&lt;/div&gt;&lt;div&gt;&lt;b&gt;&amp;nbsp; &amp;nbsp; &quot;Resource&quot;: [&lt;/b&gt;&lt;/div&gt;&lt;div&gt;&lt;b&gt;&amp;nbsp; &amp;nbsp; &amp;nbsp; &amp;nbsp; &quot;arn:aws:s3:::Userdata-dev/&quot;,&lt;/b&gt;&lt;/div&gt;&lt;div&gt;&lt;b&gt;&amp;nbsp; &amp;nbsp; &amp;nbsp; &amp;nbsp; &quot;arn:aws:s3:::Userdata-dev/*&quot;&lt;/b&gt;&lt;/div&gt;&lt;div&gt;&lt;b&gt;&amp;nbsp; &amp;nbsp; ]&lt;/b&gt;&lt;/div&gt;&lt;div&gt;&lt;b&gt;}&lt;/b&gt;&lt;/div&gt;" style="text;strokeColor=default;align=left;fillColor=none;html=1;verticalAlign=middle;whiteSpace=wrap;rounded=0;" vertex="1" parent="8JDi8ywZV_aK6q6rxBD8-22">
          <mxGeometry x="40" y="50" width="330" height="150" as="geometry" />
        </mxCell>
        <mxCell id="8JDi8ywZV_aK6q6rxBD8-39" value="AWS Account uat" style="points=[[0,0],[0.25,0],[0.5,0],[0.75,0],[1,0],[1,0.25],[1,0.5],[1,0.75],[1,1],[0.75,1],[0.5,1],[0.25,1],[0,1],[0,0.75],[0,0.5],[0,0.25]];outlineConnect=0;gradientColor=none;html=1;whiteSpace=wrap;fontSize=12;fontStyle=0;container=1;pointerEvents=0;collapsible=0;recursiveResize=0;shape=mxgraph.aws4.group;grIcon=mxgraph.aws4.group_account;strokeColor=#CD2264;fillColor=none;verticalAlign=top;align=left;spacingLeft=30;fontColor=#CD2264;dashed=0;" vertex="1" parent="1">
          <mxGeometry x="520" y="880" width="360" height="240" as="geometry" />
        </mxCell>
        <mxCell id="8JDi8ywZV_aK6q6rxBD8-40" value="Userdata-prod" style="text;strokeColor=none;align=center;fillColor=none;html=1;verticalAlign=middle;whiteSpace=wrap;rounded=0;" vertex="1" parent="8JDi8ywZV_aK6q6rxBD8-39">
          <mxGeometry x="730" y="500" width="110" height="30" as="geometry" />
        </mxCell>
        <mxCell id="8JDi8ywZV_aK6q6rxBD8-50" value="&lt;div&gt;&lt;b&gt;{&lt;/b&gt;&lt;/div&gt;&lt;div&gt;&lt;b&gt;&amp;nbsp; &amp;nbsp; &quot;Effect&quot;: &quot;Allow&quot;,&lt;/b&gt;&lt;/div&gt;&lt;div&gt;&lt;b&gt;&amp;nbsp; &amp;nbsp; &quot;Action&quot;: [&lt;/b&gt;&lt;/div&gt;&lt;div&gt;&lt;b&gt;&amp;nbsp; &amp;nbsp; &amp;nbsp; &amp;nbsp; &quot;s3:GetObjects&quot;,&lt;/b&gt;&lt;/div&gt;&lt;div&gt;&lt;b&gt;&amp;nbsp; &amp;nbsp; &amp;nbsp; &amp;nbsp; &quot;s3:ListObjects&quot;&lt;/b&gt;&lt;/div&gt;&lt;div&gt;&lt;b&gt;&amp;nbsp; &amp;nbsp; ],&lt;/b&gt;&lt;/div&gt;&lt;div&gt;&lt;b&gt;&amp;nbsp; &amp;nbsp; &quot;Resource&quot;: [&lt;/b&gt;&lt;/div&gt;&lt;div&gt;&lt;b&gt;&amp;nbsp; &amp;nbsp; &amp;nbsp; &amp;nbsp; &quot;arn:aws:s3:::Userdata-uat/&quot;,&lt;/b&gt;&lt;/div&gt;&lt;div&gt;&lt;b&gt;&amp;nbsp; &amp;nbsp; &amp;nbsp; &amp;nbsp; &quot;arn:aws:s3:::Userdata-uat/*&quot;&lt;/b&gt;&lt;/div&gt;&lt;div&gt;&lt;b&gt;&amp;nbsp; &amp;nbsp; ]&lt;/b&gt;&lt;/div&gt;&lt;div&gt;&lt;b&gt;}&lt;/b&gt;&lt;/div&gt;" style="text;strokeColor=default;align=left;fillColor=none;html=1;verticalAlign=middle;whiteSpace=wrap;rounded=0;" vertex="1" parent="8JDi8ywZV_aK6q6rxBD8-39">
          <mxGeometry x="15" y="70" width="330" height="150" as="geometry" />
        </mxCell>
        <mxCell id="8JDi8ywZV_aK6q6rxBD8-41" value="AWS Account test" style="points=[[0,0],[0.25,0],[0.5,0],[0.75,0],[1,0],[1,0.25],[1,0.5],[1,0.75],[1,1],[0.75,1],[0.5,1],[0.25,1],[0,1],[0,0.75],[0,0.5],[0,0.25]];outlineConnect=0;gradientColor=none;html=1;whiteSpace=wrap;fontSize=12;fontStyle=0;container=1;pointerEvents=0;collapsible=0;recursiveResize=0;shape=mxgraph.aws4.group;grIcon=mxgraph.aws4.group_account;strokeColor=#CD2264;fillColor=none;verticalAlign=top;align=left;spacingLeft=30;fontColor=#CD2264;dashed=0;" vertex="1" parent="1">
          <mxGeometry x="40" y="1200" width="440" height="240" as="geometry" />
        </mxCell>
        <mxCell id="8JDi8ywZV_aK6q6rxBD8-42" value="Userdata-prod" style="text;strokeColor=none;align=center;fillColor=none;html=1;verticalAlign=middle;whiteSpace=wrap;rounded=0;" vertex="1" parent="8JDi8ywZV_aK6q6rxBD8-41">
          <mxGeometry x="730" y="500" width="110" height="30" as="geometry" />
        </mxCell>
        <mxCell id="8JDi8ywZV_aK6q6rxBD8-51" value="&lt;div&gt;&lt;b&gt;{&lt;/b&gt;&lt;/div&gt;&lt;div&gt;&lt;b&gt;&amp;nbsp; &amp;nbsp; &quot;Effect&quot;: &quot;Allow&quot;,&lt;/b&gt;&lt;/div&gt;&lt;div&gt;&lt;b&gt;&amp;nbsp; &amp;nbsp; &quot;Action&quot;: [&lt;/b&gt;&lt;/div&gt;&lt;div&gt;&lt;b&gt;&amp;nbsp; &amp;nbsp; &amp;nbsp; &amp;nbsp; &quot;s3:*&quot;&lt;/b&gt;&lt;/div&gt;&lt;div&gt;&lt;b&gt;&amp;nbsp; &amp;nbsp; ],&lt;/b&gt;&lt;/div&gt;&lt;div&gt;&lt;b&gt;&amp;nbsp; &amp;nbsp; &quot;Resource&quot;: [&lt;/b&gt;&lt;/div&gt;&lt;div&gt;&lt;b&gt;&amp;nbsp; &amp;nbsp; &amp;nbsp; &amp;nbsp; &quot;arn:aws:s3:::Userdata-test/&quot;,&lt;/b&gt;&lt;/div&gt;&lt;div&gt;&lt;b&gt;&amp;nbsp; &amp;nbsp; &amp;nbsp; &amp;nbsp; &quot;arn:aws:s3:::Userdata-test/*&quot;&lt;/b&gt;&lt;/div&gt;&lt;div&gt;&lt;b&gt;&amp;nbsp; &amp;nbsp; ]&lt;/b&gt;&lt;/div&gt;&lt;div&gt;&lt;b&gt;}&lt;/b&gt;&lt;/div&gt;" style="text;strokeColor=default;align=left;fillColor=none;html=1;verticalAlign=middle;whiteSpace=wrap;rounded=0;" vertex="1" parent="8JDi8ywZV_aK6q6rxBD8-41">
          <mxGeometry x="30" y="45" width="330" height="150" as="geometry" />
        </mxCell>
        <mxCell id="8JDi8ywZV_aK6q6rxBD8-43" value="AWS Account prod" style="points=[[0,0],[0.25,0],[0.5,0],[0.75,0],[1,0],[1,0.25],[1,0.5],[1,0.75],[1,1],[0.75,1],[0.5,1],[0.25,1],[0,1],[0,0.75],[0,0.5],[0,0.25]];outlineConnect=0;gradientColor=none;html=1;whiteSpace=wrap;fontSize=12;fontStyle=0;container=1;pointerEvents=0;collapsible=0;recursiveResize=0;shape=mxgraph.aws4.group;grIcon=mxgraph.aws4.group_account;strokeColor=#CD2264;fillColor=none;verticalAlign=top;align=left;spacingLeft=30;fontColor=#CD2264;dashed=0;" vertex="1" parent="1">
          <mxGeometry x="520" y="1200" width="360" height="240" as="geometry" />
        </mxCell>
        <mxCell id="8JDi8ywZV_aK6q6rxBD8-44" value="Userdata-prod" style="text;strokeColor=none;align=center;fillColor=none;html=1;verticalAlign=middle;whiteSpace=wrap;rounded=0;" vertex="1" parent="8JDi8ywZV_aK6q6rxBD8-43">
          <mxGeometry x="730" y="500" width="110" height="30" as="geometry" />
        </mxCell>
        <mxCell id="8JDi8ywZV_aK6q6rxBD8-52" value="&lt;div&gt;&lt;b&gt;&lt;font color=&quot;#ff3333&quot;&gt;{&lt;/font&gt;&lt;/b&gt;&lt;/div&gt;&lt;div&gt;&lt;b&gt;&lt;font color=&quot;#ff3333&quot;&gt;&amp;nbsp; &amp;nbsp; &quot;Effect&quot;: &quot;Deny&quot;,&lt;/font&gt;&lt;/b&gt;&lt;/div&gt;&lt;div&gt;&lt;b&gt;&lt;font color=&quot;#ff3333&quot;&gt;&amp;nbsp; &amp;nbsp; &quot;Action&quot;: [&lt;/font&gt;&lt;/b&gt;&lt;/div&gt;&lt;div&gt;&lt;b&gt;&lt;font color=&quot;#ff3333&quot;&gt;&amp;nbsp; &amp;nbsp; &amp;nbsp; &amp;nbsp; &quot;s3:*&quot;&lt;/font&gt;&lt;/b&gt;&lt;/div&gt;&lt;div&gt;&lt;b&gt;&lt;font color=&quot;#ff3333&quot;&gt;&amp;nbsp; &amp;nbsp; ],&lt;/font&gt;&lt;/b&gt;&lt;/div&gt;&lt;div&gt;&lt;b&gt;&lt;font color=&quot;#ff3333&quot;&gt;&amp;nbsp; &amp;nbsp; &quot;Resource&quot;: [&lt;/font&gt;&lt;/b&gt;&lt;/div&gt;&lt;div&gt;&lt;b&gt;&lt;font color=&quot;#ff3333&quot;&gt;&amp;nbsp; &amp;nbsp; &amp;nbsp; &amp;nbsp; &quot;arn:aws:s3:::Userdata-prod/&quot;,&lt;/font&gt;&lt;/b&gt;&lt;/div&gt;&lt;div&gt;&lt;b&gt;&lt;font color=&quot;#ff3333&quot;&gt;&amp;nbsp; &amp;nbsp; &amp;nbsp; &amp;nbsp; &quot;arn:aws:s3:::Userdata-prod/*&quot;&lt;/font&gt;&lt;/b&gt;&lt;/div&gt;&lt;div&gt;&lt;b&gt;&lt;font color=&quot;#ff3333&quot;&gt;&amp;nbsp; &amp;nbsp; ]&lt;/font&gt;&lt;/b&gt;&lt;/div&gt;&lt;div&gt;&lt;b&gt;&lt;font color=&quot;#ff3333&quot;&gt;}&lt;/font&gt;&lt;/b&gt;&lt;/div&gt;" style="text;strokeColor=default;align=left;fillColor=none;html=1;verticalAlign=middle;whiteSpace=wrap;rounded=0;" vertex="1" parent="8JDi8ywZV_aK6q6rxBD8-43">
          <mxGeometry x="15" y="50" width="330" height="150" as="geometry" />
        </mxCell>
        <mxCell id="8JDi8ywZV_aK6q6rxBD8-55" value="AWS Management Account" style="points=[[0,0],[0.25,0],[0.5,0],[0.75,0],[1,0],[1,0.25],[1,0.5],[1,0.75],[1,1],[0.75,1],[0.5,1],[0.25,1],[0,1],[0,0.75],[0,0.5],[0,0.25]];outlineConnect=0;gradientColor=none;html=1;whiteSpace=wrap;fontSize=12;fontStyle=0;container=1;pointerEvents=0;collapsible=0;recursiveResize=0;shape=mxgraph.aws4.group;grIcon=mxgraph.aws4.group_account;strokeColor=#CD2264;fillColor=none;verticalAlign=top;align=left;spacingLeft=30;fontColor=#CD2264;dashed=0;" vertex="1" parent="1">
          <mxGeometry x="920" y="880" width="360" height="240" as="geometry" />
        </mxCell>
        <mxCell id="8JDi8ywZV_aK6q6rxBD8-56" value="Userdata-prod" style="text;strokeColor=none;align=center;fillColor=none;html=1;verticalAlign=middle;whiteSpace=wrap;rounded=0;" vertex="1" parent="8JDi8ywZV_aK6q6rxBD8-55">
          <mxGeometry x="730" y="500" width="110" height="30" as="geometry" />
        </mxCell>
      </root>
    </mxGraphModel>
  </diagram>
</mxfile>
